<?xml version="1.0" encoding="utf-8"?>
<svg version="1.1" id="Layer_1"
     xmlns="http://www.w3.org/2000/svg" x="0px" y="0px" viewBox="0 0 512 512"
     style="enable-background:new 0 0 512 512;" xml:space="preserve">
<style type="text/css">
	.st0{fill:#EDF4FE;}
	.st1{fill:#00912C;}
	.st2{fill:#008127;}
	.st3{fill:#00BF4B;}
	.st4{fill:#F8BC38;}
</style>
    <path class="st0" d="M488,102.7c0-43.5-35.2-78.7-78.7-78.7H102.7C59.2,24,24,59.2,24,102.7v306.5c0,43.5,35.2,78.7,78.7,78.7h306.5
	c43.5,0,78.7-35.2,78.7-78.7V102.7z"/>
    <path class="st1" d="M204.2,419.9c-2,2.8-2,6.6,0,9.4l40.2,55.4c1.5,2.1,3.9,3.3,6.5,3.3h158.4c43.5,0,78.7-35.2,78.7-78.7v-9.8
	c0-1.7-0.5-3.3-1.5-4.7l-68.3-94.1c-25.6-35.2-74.8-43-110-17.4c-6.7,4.9-12.6,10.7-17.4,17.4L204.2,419.9z"/>
    <path class="st2" d="M220.5,397.3l-16.4,22.5c-2,2.8-2,6.6,0,9.4l40.2,55.4c1.5,2.1,3.9,3.3,6.5,3.3h22.6c2.6-7.4,1.4-15.7-3.2-22.1
	L220.5,397.3z"/>
    <path class="st3" d="M25.5,394.8c-1,1.4-1.5,3-1.5,4.7v9.8c0,43.5,35.2,78.7,78.7,78.7h148.2c4.4,0,8-3.6,8-8c0-1.7-0.5-3.3-1.5-4.7
	l-81.4-112.2c-25.5-35.2-74.8-43-110-17.5c-6.7,4.9-12.6,10.8-17.5,17.5C48.5,363.1,25.5,394.8,25.5,394.8z M436.8,256v-16
	c0-2.2-1.8-4-4-4s-4,1.8-4,4v16c0,2.2,1.8,4,4,4S436.8,258.2,436.8,256z M436.8,224v-16c0-2.2-1.8-4-4-4s-4,1.8-4,4v16
	c0,2.2,1.8,4,4,4S436.8,226.2,436.8,224z M436.8,192v-16c0-2.2-1.8-4-4-4s-4,1.8-4,4v16c0,2.2,1.8,4,4,4S436.8,194.2,436.8,192z
	 M436.8,160v-16c0-2.2-1.8-4-4-4s-4,1.8-4,4v16c0,2.2,1.8,4,4,4S436.8,162.2,436.8,160z M436.8,127.9c-0.2-5.8-1.3-11.5-3.3-16.9
	c-0.8-2.1-3.1-3.1-5.1-2.4c-2.1,0.8-3.1,3.1-2.4,5.1l0,0c1.6,4.5,2.6,9.4,2.8,14.4c0.1,2.2,1.9,3.9,4.1,3.9
	C435.2,131.9,436.9,130.1,436.8,127.9z M425.2,96c-3.6-4.5-7.8-8.5-12.6-11.7c-1.8-1.3-4.3-0.8-5.6,1s-0.8,4.3,1,5.6
	c0,0,0.1,0.1,0.1,0.1c4.1,2.7,7.7,6.1,10.8,10c1.3,1.8,3.8,2.1,5.6,0.8c1.8-1.3,2.1-3.8,0.8-5.6C425.3,96.1,425.2,96,425.2,96z
	 M396.9,77.1c-4.8-1.3-9.7-2-14.6-2H380c-2.2,0-4,1.8-4,4s1.8,4,4,4h2.3c4.3,0,8.5,0.6,12.5,1.7c2.1,0.6,4.3-0.7,4.9-2.8
	C400.3,79.9,399,77.7,396.9,77.1L396.9,77.1L396.9,77.1z M364,75.2h-16c-2.2,0-4,1.8-4,4s1.8,4,4,4h16c2.2,0,4-1.8,4-4
	S366.2,75.2,364,75.2z M332,75.2h-16c-2.2,0-4,1.8-4,4s1.8,4,4,4h16c2.2,0,4-1.8,4-4S334.2,75.2,332,75.2z M300,75.2h-16
	c-2.2,0-4,1.8-4,4s1.8,4,4,4h16c2.2,0,4-1.8,4-4S302.2,75.2,300,75.2z M268,75.2h-12c-2.2,0-4,1.8-4,4s1.8,4,4,4h12c2.2,0,4-1.8,4-4
	S270.2,75.2,268,75.2z"/>
    <circle class="st4" cx="157.9" cy="157.9" r="50.1"/>
</svg>
