<svg version="1.1" id="Layer_1" xmlns="http://www.w3.org/2000/svg" x="0px" y="0px"
     viewBox="0 0 24 24" style="enable-background:new 0 0 24 24;" xml:space="preserve">
<style type="text/css">
	.st0{fill:#4FBF9F;}
	.st1{fill:#E66454;}
	.st2{fill:#28A2DB;}
	.st3{fill:#FCD463;}
</style>
    <path class="st0" d="M22.38,10.82H7.87c-0.5,0-0.9-0.41-0.9-0.9v-2c0-0.5,0.41-0.9,0.9-0.9h14.51c0.5,0,0.9,0.41,0.9,0.9v2
	C23.29,10.42,22.88,10.82,22.38,10.82z M2.9,6.74c-0.22,0-0.44,0.03-0.65,0.1C2.11,6.88,1.98,6.94,1.86,7
	c-0.18,0.1-0.35,0.23-0.5,0.37C1.21,7.53,1.08,7.7,0.99,7.88c-0.1,0.19-0.17,0.39-0.22,0.6C0.74,8.62,0.72,8.77,0.72,8.91
	c0,0.15,0.01,0.3,0.04,0.44c0.03,0.12,0.06,0.24,0.11,0.36c0.03,0.08,0.07,0.17,0.11,0.25c0.07,0.13,0.15,0.25,0.25,0.36
	c0.17,0.21,0.39,0.38,0.63,0.51c0.08,0.04,0.16,0.08,0.25,0.11c0.12,0.04,0.23,0.08,0.36,0.11c0.14,0.03,0.29,0.04,0.44,0.04
	c1.2,0,2.18-0.97,2.18-2.18C5.07,7.72,4.09,6.74,2.9,6.74z"/>
    <circle class="st1" cx="2.9" cy="15.08" r="2.18"/>
    <path class="st1" d="M22.38,16.99H7.87c-0.5,0-0.9-0.41-0.9-0.9v-2c0-0.5,0.41-0.9,0.9-0.9h14.51c0.5,0,0.9,0.41,0.9,0.9v2
	C23.29,16.58,22.88,16.99,22.38,16.99z"/>
    <circle class="st2" cx="2.9" cy="21.24" r="2.18"/>
    <path class="st2" d="M22.38,23.15H7.87c-0.5,0-0.9-0.41-0.9-0.9v-2c0-0.5,0.41-0.9,0.9-0.9h14.51c0.5,0,0.9,0.41,0.9,0.9v2
	C23.29,22.74,22.88,23.15,22.38,23.15z"/>
    <circle class="st3" cx="2.9" cy="2.76" r="2.18"/>
    <path class="st3" d="M22.38,4.66H7.87c-0.5,0-0.9-0.41-0.9-0.9v-2c0-0.5,0.41-0.9,0.9-0.9h14.51c0.5,0,0.9,0.41,0.9,0.9v2
	C23.29,4.26,22.88,4.66,22.38,4.66z"/>
</svg>
